<svg width="14" height="14" viewBox="0 0 14 14" fill="none" xmlns="http://www.w3.org/2000/svg">
<path fill-rule="evenodd" clip-rule="evenodd" d="M7.17163 7.98276L12.4765 1.25392C12.7045 0.96478 13.1236 0.915177 13.4128 1.14313C13.7019 1.37108 13.7515 1.79027 13.5236 2.07941L7.74213 9.41274C7.49073 9.73163 7.01505 9.75359 6.73532 9.45923L3.8501 6.42291C3.59647 6.15601 3.60724 5.73404 3.87415 5.48041C4.14105 5.22679 4.56302 5.23755 4.81665 5.50446L7.17163 7.98276ZM12.3334 6.40001C12.3334 6.03182 12.6319 5.73334 13 5.73334C13.3682 5.73334 13.6667 6.03182 13.6667 6.40001V11.2C13.6667 12.5623 12.5623 13.6667 11.2 13.6667H2.80004C1.43774 13.6667 0.333374 12.5623 0.333374 11.2V2.80001C0.333374 1.43771 1.43774 0.333344 2.80004 0.333344H9.93337C10.3016 0.333344 10.6 0.63182 10.6 1.00001C10.6 1.3682 10.3016 1.66668 9.93337 1.66668H2.80004C2.17412 1.66668 1.66671 2.17409 1.66671 2.80001V11.2C1.66671 11.8259 2.17412 12.3333 2.80004 12.3333H11.2C11.826 12.3333 12.3334 11.8259 12.3334 11.2V6.40001Z" fill="#92929D"/>
</svg>
