<svg width="70" height="70" viewBox="0 0 70 70" fill="none" xmlns="http://www.w3.org/2000/svg">
<g id="Logo">
<rect id="Shape" x="1.5" y="1.5" width="67" height="67" rx="11.5" fill="#67B56B" stroke="#FAFAFB" stroke-width="3"/>
<path id="Shape_2" fill-rule="evenodd" clip-rule="evenodd" d="M20.7736 22.6473C20.7736 22.6473 20.7736 22.6473 20.7762 22.6473H24.7646C24.9932 22.6473 25.1769 22.4643 25.1774 22.2413C25.1774 22.2399 25.129 18.8795 25.129 17.945V17.9339C25.129 17.1664 25.2928 16.4972 25.5782 15.9365L25.7146 15.6847C25.6994 15.6872 25.6841 15.6945 25.6689 15.7095L17.9194 23.2641C17.9042 23.2764 17.8947 23.2923 17.8903 23.3086C18.0506 23.2306 18.2698 23.124 18.3008 23.1107C18.9757 22.8113 19.794 22.6473 20.7736 22.6473ZM51.8084 21.8247C51.4916 20.1575 50.4833 19.3358 49.5716 19.0128C48.5881 18.6633 46.5937 18.3013 44.0879 18.0109C42.0719 17.7775 39.7024 17.7961 38.2711 17.8396C38.0993 16.683 37.274 15.6263 36.3506 15.2604C33.8903 14.2869 30.089 14.5221 29.113 14.791C28.3374 15.0041 27.479 15.4408 27.0012 16.1137C26.6808 16.5632 26.4735 17.1391 26.4719 17.9436C26.4719 18.3989 26.4848 19.4715 26.4966 20.4245C26.5083 21.3805 26.5211 22.2355 26.5211 22.2413C26.5206 23.0924 25.8189 23.7851 24.9493 23.7862H20.9603C20.1094 23.7862 19.4593 23.9268 18.9626 24.1486C18.4652 24.3706 18.113 24.6699 17.8453 25.0239C17.3125 25.7271 17.22 26.5947 17.2222 27.4802C17.2222 27.4802 17.23 28.2038 17.4074 29.6042C17.5548 30.6879 18.7503 38.2579 19.8857 40.5602C20.3259 41.4559 20.6192 41.829 21.4841 42.2239C23.4111 43.0349 27.8128 43.9372 29.8758 44.1956C31.9351 44.4546 33.2276 44.9991 33.9978 43.4115C34.0004 43.4075 34.1521 43.0165 34.3608 42.4428C35.0295 40.4508 35.1225 38.6833 35.1225 37.4042C35.1225 37.2741 35.3167 37.2682 35.3167 37.4042C35.3167 38.3072 35.1412 41.5027 37.5967 42.36C38.5661 42.698 40.577 42.9993 42.6203 43.2347C44.4678 43.4434 45.8085 44.1581 45.8085 48.8177C45.8085 51.6526 45.2028 52.0413 42.0364 52.0413C39.4696 52.0413 38.4913 52.1066 38.4913 50.1019C38.4913 48.4817 40.1213 48.6515 41.3294 48.6515C41.869 48.6515 41.4774 48.257 41.4774 47.2574C41.4774 46.2631 42.11 45.6883 41.5116 45.6737C37.3342 45.5607 34.8762 45.669 34.8762 50.805C34.8762 55.4675 36.6912 56.3333 42.6202 56.3333C47.2688 56.3333 48.9075 56.1837 50.8269 50.3289C51.2069 49.1731 52.1254 45.6459 52.6813 39.7237C53.0328 35.9791 52.3501 24.6772 51.8084 21.8247ZM43.705 34.3169C43.1307 34.2972 42.5783 34.3328 42.0632 34.4142C42.2081 33.2632 42.6914 31.8509 44.4033 31.9101C46.2983 31.9741 46.5639 33.7349 46.5706 34.9276C45.7716 34.5773 44.7824 34.3541 43.705 34.3169Z" fill="white"/>
</g>
</svg>
