<svg width="70" height="70" viewBox="0 0 70 70" fill="none" xmlns="http://www.w3.org/2000/svg">
<g id="Logo">
<rect id="Shape" x="1.5" y="1.5" width="67" height="67" rx="11.5" fill="#191619" stroke="#FAFAFB" stroke-width="3"/>
<g id="amazon 2">
<path id="path22" fill-rule="evenodd" clip-rule="evenodd" d="M47.3286 46.4913C48.6283 46.3332 51.5103 45.9824 52.0248 46.6517C52.5397 47.3216 51.4529 50.0806 50.9669 51.3145L50.9663 51.316C50.8191 51.6892 51.1348 51.8398 51.4671 51.5574C53.6266 49.7213 54.1845 45.8744 53.7421 45.3187C53.3034 44.7683 49.5281 44.2933 47.2241 45.9382C46.8698 46.1911 46.9308 46.5397 47.3238 46.4919L47.3286 46.4913ZM35.4638 53.9996C40.4887 53.9996 46.3245 52.3938 50.3495 49.3749C51.0157 48.8752 50.4451 48.1259 49.7645 48.4195C45.2521 50.3646 40.3479 51.3056 35.8865 51.3056C29.2728 51.3056 22.8698 49.4613 17.692 46.399C17.239 46.131 16.9029 46.6037 17.2797 46.9494C22.0792 51.3539 28.4209 53.9996 35.4638 53.9996Z" fill="#FF9900"/>
<path id="path44" fill-rule="evenodd" clip-rule="evenodd" d="M42.077 41.4926C41.796 41.7487 41.3908 41.7659 41.0746 41.593C39.6652 40.4026 39.4127 39.8523 38.6425 38.7193C36.3136 41.1306 34.6639 41.8538 31.6475 41.8538C28.075 41.8538 25.297 39.6135 25.297 35.133C25.297 31.6325 27.1625 29.2521 29.8217 28.0853C32.1237 27.0583 35.3388 26.8716 37.7991 26.5916V26.0316C37.7991 25.0047 37.8787 23.7911 37.2836 22.9046C36.7676 22.1108 35.775 21.7842 34.9021 21.7842C33.284 21.7842 31.8449 22.6269 31.4921 24.3735C31.4182 24.7621 31.1394 25.1465 30.7545 25.1662L26.6427 24.7139C26.2953 24.6343 25.9089 24.3513 26.0095 23.8125C26.9542 18.7418 31.4595 17.21 35.4971 17.21C37.5615 17.21 40.26 17.77 41.8877 19.357C43.9513 21.3174 43.753 23.9311 43.753 26.7784V33.4965C43.753 35.5172 44.5789 36.4038 45.3544 37.4929C45.6251 37.8851 45.6862 38.3517 45.3409 38.6381C44.4742 39.3766 42.9339 40.736 42.087 41.5022L42.077 41.4926ZM37.7991 30.979C37.7991 32.6595 37.8392 34.0594 37.0054 35.5532C36.3311 36.7668 35.2595 37.5135 34.0686 37.5135C32.4412 37.5135 31.4887 36.2528 31.4887 34.3861C31.4887 30.7136 34.7303 30.0457 37.7991 30.0457V30.979Z" fill="white"/>
</g>
</g>
</svg>
