<svg width="70" height="70" viewBox="0 0 70 70" fill="none" xmlns="http://www.w3.org/2000/svg">
<g id="Logo">
<rect id="Shape" x="1.5" y="1.5" width="67" height="67" rx="11.5" fill="white" stroke="#FAFAFB" stroke-width="3"/>
<path id="Fill 2" fill-rule="evenodd" clip-rule="evenodd" d="M53.1389 43.6155C52.9379 43.1244 52.7369 42.5928 52.536 42.1422C52.2146 41.4061 51.8921 40.7094 51.6105 40.0553L51.5708 40.0137C48.7955 33.8745 45.8182 27.6533 42.6819 21.514L42.5604 21.2679C42.239 20.6543 41.9177 19.9992 41.5952 19.3451C41.1932 18.6079 40.7912 17.8303 40.1474 17.093C38.8609 15.4568 37.0099 14.5555 35.0398 14.5555C33.0288 14.5555 31.2188 15.4568 29.8914 17.0122C29.2873 17.7482 28.8455 18.5259 28.4436 19.2631C28.1211 19.9171 27.7997 20.5723 27.4784 21.187L27.3569 21.432C24.2603 27.5712 21.2432 33.7925 18.468 39.9317L18.4282 40.0137C18.1466 40.6689 17.8241 41.3645 17.5028 42.1018C17.3018 42.5512 17.1008 43.0423 16.8998 43.575C16.3763 45.0887 16.2162 46.5216 16.4172 47.9949C16.8589 51.065 18.87 53.643 21.6452 54.7893C22.691 55.2399 23.7777 55.4444 24.903 55.4444C25.2255 55.4444 25.6275 55.4028 25.9488 55.3624C27.2762 55.1983 28.6445 54.7488 29.972 53.9712C31.6208 53.0294 33.1889 51.6786 34.9592 49.7143C36.7283 51.6786 38.3374 53.0294 39.9464 53.9712C41.2738 54.7488 42.641 55.1983 43.9684 55.3624C44.2898 55.4028 44.6929 55.4444 45.0143 55.4444C46.1407 55.4444 47.2671 55.2399 48.2721 54.7893C51.0882 53.643 53.0583 51.0234 53.5012 47.9949C53.8225 46.562 53.6624 45.1303 53.1389 43.6155ZM34.9989 45.7439C32.8267 42.9603 31.4198 40.3419 30.9372 38.1314C30.7362 37.1897 30.6953 36.3716 30.8157 35.6344C30.8963 34.9803 31.1382 34.4061 31.4595 33.9161C32.2237 32.8103 33.5114 32.1147 34.9989 32.1147C36.4876 32.1147 37.815 32.7699 38.5384 33.9161C38.8609 34.4061 39.1016 34.9803 39.1822 35.6344C39.3026 36.3716 39.2628 37.2301 39.0618 38.1314C38.5792 40.3003 37.1712 42.9199 34.9989 45.7439ZM51.0473 47.6678C50.7657 49.7963 49.3588 51.6382 47.3875 52.4563C46.4223 52.8653 45.3765 52.989 44.3307 52.8653C43.3246 52.7428 42.3197 52.4158 41.2738 51.8011C39.826 50.983 38.3783 49.7143 36.6886 47.8319C39.3434 44.5156 40.9525 41.487 41.5554 38.7866C41.8371 37.5178 41.8768 36.3716 41.7564 35.3074C41.5952 34.2836 41.233 33.343 40.6709 32.5237C39.4241 30.6818 37.3324 29.6176 34.9989 29.6176C32.6666 29.6176 30.5749 30.7234 29.3281 32.5237C28.7649 33.343 28.4027 34.2836 28.2426 35.3074C28.0813 36.3716 28.1211 37.5583 28.4436 38.7866C29.0465 41.487 30.6953 44.5572 33.3104 47.8724C31.6605 49.7547 30.173 51.0234 28.7252 51.8427C27.6794 52.4563 26.6733 52.7844 25.6683 52.9069C24.5816 53.0294 23.5358 52.8653 22.6115 52.4979C20.6402 51.6786 19.2322 49.8367 18.9506 47.7083C18.8302 46.6857 18.9108 45.6619 19.3128 44.5156C19.4343 44.1066 19.6342 43.6975 19.8363 43.2064C20.1179 42.5512 20.4393 41.8556 20.7606 41.16L20.8015 41.078C23.5767 34.9803 26.5529 28.7579 29.6495 22.7007L29.771 22.4558C30.0923 21.841 30.4137 21.187 30.7362 20.5723C31.0575 19.9171 31.4198 19.3035 31.8615 18.772C32.7063 17.7898 33.8328 17.2571 35.0796 17.2571C36.3264 17.2571 37.4528 17.7898 38.2976 18.772C38.7394 19.3035 39.1016 19.9171 39.4241 20.5723C39.7454 21.187 40.0668 21.841 40.3893 22.4558L40.5096 22.7007C43.5665 28.7995 46.5427 35.0208 49.3179 41.1196V41.16C49.6392 41.8152 49.9209 42.5512 50.2433 43.2064C50.4443 43.6975 50.6453 44.1066 50.7657 44.5156C51.0882 45.5798 51.2085 46.6036 51.0473 47.6678Z" fill="#F55E65"/>
</g>
</svg>
