<svg width="70" height="70" viewBox="0 0 70 70" fill="none" xmlns="http://www.w3.org/2000/svg">
<g id="Logo">
<rect id="Shape" x="1.5" y="1.5" width="67" height="67" rx="11.5" fill="#F46899" stroke="#FAFAFB" stroke-width="3"/>
<path id="dribbble 2" fill-rule="evenodd" clip-rule="evenodd" d="M52 35C52 25.6112 44.3888 18 35 18C25.6112 18 18 25.6112 18 35C18 44.3888 25.6112 52 35 52C44.3888 52 52 44.3888 52 35ZM37.5677 37.3464C39.0139 41.1389 40.0469 44.8134 40.6667 48.3698C38.8368 49.1372 36.9479 49.5208 35 49.5208C31.5469 49.5208 28.4627 48.4141 25.7474 46.2005L26.0794 46.444C26.5959 45.3077 27.3559 44.2157 28.3594 43.168C29.3628 42.1202 30.3294 41.2754 31.2591 40.6335C32.1888 39.9915 33.1997 39.3865 34.2917 38.8184C35.3837 38.2502 36.1289 37.8887 36.5273 37.7337C36.9258 37.5788 37.2431 37.457 37.4792 37.3685L37.5234 37.3464H37.5677ZM36.5716 34.9336C36.2617 34.2105 35.8707 33.3915 35.3984 32.4766C30.809 33.849 25.8433 34.5352 20.5013 34.5352C20.4865 34.6385 20.4792 34.7934 20.4792 35C20.4792 36.8299 20.8038 38.5749 21.4531 40.235C22.1024 41.8952 23.0174 43.3819 24.1979 44.6953C24.9358 43.3819 25.847 42.1534 26.9316 41.0098C28.0163 39.8661 29.0677 38.9475 30.0859 38.2539C31.1042 37.5603 32.0671 36.9627 32.9746 36.4609C33.8822 35.9592 34.6163 35.605 35.1771 35.3984L35.9961 35.1107C36.0551 35.0959 36.151 35.0701 36.2839 35.0332C36.4167 34.9963 36.5126 34.9631 36.5716 34.9336ZM28.8021 21.8737C30.6319 24.3086 32.4323 27.0977 34.2031 30.2409C29.717 31.4214 25.2457 32.0117 20.7891 32.0117C21.2613 29.7834 22.2057 27.7765 23.6224 25.9909C25.0391 24.2053 26.7656 22.8329 28.8021 21.8737ZM49.3438 37.3021C46.2448 36.4167 43.227 36.2027 40.2904 36.6602C41.5742 40.1871 42.5187 43.6476 43.1237 47.0417C44.7617 45.9349 46.1267 44.5367 47.2188 42.847C48.3108 41.1573 49.0191 39.309 49.3438 37.3021ZM44.5846 24.1094C41.8546 21.6892 38.6597 20.4792 35 20.4792C33.8785 20.4792 32.7348 20.6194 31.569 20.8997C33.5022 23.4084 35.3173 26.227 37.0143 29.3555C38.0326 28.9718 38.9918 28.5254 39.8919 28.0163C40.7921 27.5072 41.5041 27.0534 42.028 26.6549C42.5519 26.2565 43.0352 25.8359 43.4779 25.3932C43.9206 24.9505 44.1973 24.6517 44.3079 24.4967L44.5846 24.1094ZM46.2227 25.7695C48.3772 28.3963 49.4766 31.4214 49.5208 34.8451L49.2995 34.8008C49.1519 34.7713 48.9674 34.7381 48.7461 34.7012C48.5247 34.6643 48.2554 34.62 47.9382 34.5684C47.6209 34.5167 47.2667 34.4688 46.8757 34.4245C46.4846 34.3802 46.0677 34.3396 45.625 34.3027C45.1823 34.2658 44.7101 34.2363 44.2083 34.2142C43.7066 34.1921 43.1975 34.181 42.681 34.181C42.1645 34.181 41.6222 34.1957 41.054 34.2253C40.4859 34.2548 39.9362 34.3064 39.4049 34.3802C39.3607 34.3064 39.3053 34.1847 39.2389 34.015C39.1725 33.8453 39.1246 33.7161 39.0951 33.6276C38.8147 33.0078 38.49 32.3069 38.1211 31.5247C39.1393 31.1115 40.1096 30.6356 41.0319 30.097C41.9542 29.5584 42.6921 29.0788 43.2454 28.6582C43.7988 28.2376 44.3227 27.7912 44.8171 27.319C45.3114 26.8468 45.6324 26.5184 45.7799 26.334C45.9275 26.1495 46.0677 25.9688 46.2005 25.7917L46.2227 25.7695Z" fill="white"/>
</g>
</svg>
